<svg width="476" height="144" viewBox="0 0 476 144" fill="none" xmlns="http://www.w3.org/2000/svg">
<g clip-path="url(#clip0_141_3039)">
<path d="M49.5409 127.501C49.4523 122.652 49.3785 120.493 49.2161 117.275C49.1275 115.717 49.1128 115.629 48.8618 115.806C48.7142 115.908 48.0204 116.482 47.2971 117.069C45.0237 118.906 43.5918 119.449 40.2999 119.67C38.4252 119.802 37.7609 119.978 35.5761 120.992C34.469 121.506 33.288 121.991 32.9485 122.094C32.4909 122.212 30.6456 122.226 26.3056 122.153L20.2976 122.05L18.8952 122.638C16.179 123.784 14.1861 124.254 12.769 124.077C11.4404 123.901 9.60995 123.431 8.87186 123.049C7.17424 122.197 5.46186 120.36 3.14425 116.878C0.236156 112.529 -0.487176 110.707 0.309966 109.694C0.487109 109.473 1.0333 109.091 1.5352 108.841C3.2033 108.019 3.29187 107.901 3.61663 106.329C3.79377 105.448 4.69425 105.095 5.57996 105.55C6.12615 105.844 6.96758 106.74 7.55805 107.695C8.20758 108.739 8.2371 108.797 8.57662 110.707C8.98996 112.985 9.83138 116.423 10.1709 117.172C10.4366 117.76 10.5252 117.833 11.3076 118.068C12.5623 118.421 14.7766 118.289 16.1642 117.76C16.7399 117.554 17.9652 117.172 18.8952 116.937C20.5338 116.511 20.7404 116.482 24.2833 116.437C29.4499 116.379 32.3728 115.908 33.5094 114.953C34.5428 114.087 37.6428 106.711 38.7352 102.494C39.5028 99.5999 39.5766 97.9544 39.0599 95.6623C38.2775 92.2243 37.0966 84.2316 36.949 81.4695C36.8604 79.7798 37.0966 78.0461 37.8347 74.711L38.1594 73.2417L37.4066 72.4777C36.4914 71.5815 35.7237 70.2592 35.2809 68.834C34.838 67.4235 34.7199 64.7054 35.0447 63.1921C35.1775 62.5897 35.2661 62.0902 35.2366 62.0755C35.2218 62.0608 34.779 61.7522 34.2475 61.3849C30.9999 59.1223 29.3614 56.0369 29.3318 52.1581C29.3171 50.1599 29.5237 48.8082 30.2028 46.7219C30.8818 44.5915 31.7971 43.1076 33.3471 41.5795C34.838 40.1103 36.019 39.3904 37.8937 38.788C39.8275 38.1709 40.9642 38.0093 43.5475 38.0093H45.8504L46.1899 36.3784C46.6918 33.9836 47.4594 31.5446 48.2123 30.0019C49.3194 27.7246 51.2385 26.035 54.8699 24.1396C56.1247 23.4932 56.7299 23.0524 57.7189 22.1121C58.5013 21.3628 59.8594 20.3343 61.3356 19.3499C64.037 17.5721 66.6204 15.427 68.3032 13.5611C69.9713 11.6952 70.4585 11.2691 72.2594 10.079C75.0346 8.24245 80.3784 5.40681 83.9361 3.89349C86.0913 2.96787 87.3313 2.67402 93.1475 1.70432C95.8637 1.23416 98.9194 0.690543 99.9379 0.470157C101.739 0.088154 101.901 0.0734615 106.802 0.0734615C112.102 0.0734615 114.36 0.205693 118.981 0.822775C122.096 1.23416 124.088 1.70432 125.476 2.3214C126.495 2.79156 130.569 4.27549 134.628 5.65658C141.079 7.87514 143.043 8.58037 143.855 8.99176C145.951 10.0349 149.184 12.6208 154.188 17.2636C157.17 20.0258 157.436 20.2315 160.521 22.3325C165.289 25.5648 165.746 26.1819 167.71 32.2499C169.525 37.8624 169.334 37.3922 169.85 37.3628C170.677 37.3187 173.482 37.6126 174.471 37.8477C175.002 37.9652 176.124 38.406 176.951 38.8027C180.169 40.3748 182.162 43.0341 183.313 47.2949C183.623 48.485 183.697 49.0286 183.697 50.8358C183.712 52.8046 183.682 53.069 183.284 54.2591C182.605 56.316 181.173 58.2408 179.505 59.3721L178.752 59.8716L178.87 61.3409C179.062 63.7504 178.988 67.0709 178.707 68.452C178.442 69.7596 177.807 71.2876 177.349 71.7578C177.113 72.0076 177.084 72.2279 177.113 73.2564C177.172 74.4465 176.877 77.2087 176.478 79.2362C176.286 80.2647 176.286 80.3088 176.626 80.8818C176.818 81.205 177.379 81.9396 177.881 82.4979C178.383 83.0709 178.914 83.7762 179.076 84.0847C179.888 85.6127 180.346 89.2858 180.184 92.9002C179.992 97.205 179.475 98.9094 176.257 105.594C174.987 108.239 174.574 109.356 174.692 109.958C174.81 110.59 175.475 111.53 176.257 112.177C177.246 112.999 180.538 115.159 182.295 116.129C183.431 116.775 184.199 117.348 185.321 118.406C187.269 120.243 188.081 120.684 189.469 120.684C191.329 120.669 192.377 119.905 193.661 117.598C194.783 115.585 195.285 114.953 197.632 112.529C199.905 110.193 201.116 109.223 202.828 108.357C205.751 106.887 208.408 106.902 210.091 108.401C210.933 109.165 211.243 109.752 211.243 110.619C211.243 111.427 211.051 111.853 210.327 112.632C209.117 113.94 207.08 115.056 203.803 116.202C201.78 116.922 201.116 117.334 199.404 119.009L197.839 120.551L197.234 122.432C196.909 123.46 196.451 124.577 196.2 124.93C195.196 126.369 192.628 128.412 191.55 128.617C191.181 128.691 190.694 128.588 189.631 128.206C187.889 127.574 186.531 127.28 184.435 127.104C181.748 126.854 179.741 125.988 174.604 122.785C172.109 121.242 170.5 120.331 170.278 120.331C170.234 120.331 170.234 122.461 170.293 125.077C170.352 127.677 170.352 130.381 170.293 131.1L170.175 132.379H49.6442L49.5409 127.501Z" fill="#0A0A0A"/>
<path d="M51.3715 128.529C51.3715 126.399 51.2681 122.226 51.15 119.229L50.9434 113.793L51.4895 113.352C53.4824 111.751 54.8405 110.046 56.1691 107.504C57.1433 105.609 57.1876 105.212 56.5824 102.245C55.8591 98.6008 56.0362 96.4263 57.4534 91.093C57.7043 90.1674 57.9405 89.2564 57.9848 89.0801C58.0143 88.8891 58.1029 88.7422 58.1472 88.7422C58.2062 88.7422 58.9443 89.0948 59.8005 89.5356C61.6162 90.4906 63.8305 91.2693 65.8971 91.7101C67.0929 91.9598 67.9048 92.0186 69.9714 92.0333C75.3743 92.048 80.4967 90.8285 85.2352 88.419C86.7557 87.6403 89.649 85.789 89.8557 85.4658C89.9147 85.3776 90.0328 85.8478 90.1362 86.509C90.5347 89.3299 92.0552 90.9167 94.86 91.4309L95.8785 91.6219L95.8342 92.7238C95.8195 93.3262 95.7309 95.1334 95.6571 96.7496C95.4357 101.451 95.4504 102.215 95.8638 103.082C96.8381 105.154 99.4066 106.3 101.916 105.785C103.023 105.565 104.854 104.625 105.784 103.817L106.507 103.185L107.157 103.684C108.589 104.772 110.788 105.536 112.486 105.521C114.833 105.506 116.781 103.993 117.46 101.642C117.8 100.423 117.874 96.441 117.593 93.7964C117.46 92.5769 117.357 91.5044 117.357 91.4162C117.357 91.3134 117.534 91.2399 117.77 91.2399C118.449 91.2399 120.073 90.8432 120.797 90.5053C122.45 89.7266 123.646 88.037 124.015 85.9213C124.118 85.3336 124.207 84.834 124.236 84.8046C124.251 84.7753 124.649 84.9956 125.122 85.3042C127.484 86.8028 131.366 88.3308 134.776 89.0948C137.95 89.8001 139.633 89.9764 143.19 89.9764C146.866 89.9911 148.165 89.8001 150.852 88.8597C154.026 87.7578 158.1 85.2307 160.152 83.1003C160.432 82.8065 160.713 82.5714 160.772 82.5714C160.831 82.5714 160.919 83.2472 160.964 84.0847C161.244 88.3161 161.731 90.6228 162.824 92.7826C164.005 95.1481 164.211 96.0737 164.211 99.4677L164.226 102.333L163.473 104.904C162.425 108.445 162.056 110.267 162.027 112.03C162.012 113.308 162.056 113.587 162.366 114.145C163.075 115.482 164.979 117.157 167.356 118.553L168.433 119.185L168.463 125.605L168.507 132.011V134.208C169.171 134.34 155.812 134.688 110.832 134.703L51.3715 134.327V128.529Z" fill="#FEFEFE"/>
<path d="M190.207 126.928C188.834 126.384 186.767 125.929 184.981 125.767C182.162 125.532 180.494 124.812 175.268 121.565C173.777 120.639 171.563 119.361 170.337 118.715C166.411 116.628 164.315 115.056 163.621 113.631C163.252 112.897 163.237 112.72 163.311 111.662C163.429 110.223 163.96 107.798 164.846 104.772C165.451 102.671 165.51 102.303 165.584 100.379C165.717 96.97 165.215 94.4282 163.99 92.1949C162.971 90.329 162.44 87.5962 162.292 83.4529L162.204 81.0287L163.06 80.0002C164.477 78.2812 165.835 76.0773 166.632 74.2261L166.972 73.4474L167.666 73.5649C168.049 73.6237 169.422 73.6678 170.721 73.6531C172.98 73.6384 174.249 73.4621 175.578 72.9332C175.844 72.8303 175.858 72.8891 175.755 74.1379C175.711 74.8579 175.489 76.5328 175.283 77.8698C175.076 79.1921 174.943 80.4704 174.987 80.7054C175.091 81.205 175.726 82.1453 176.892 83.497C177.379 84.0553 177.896 84.8487 178.058 85.2454C178.53 86.4796 178.766 88.61 178.766 91.5338C178.766 96.5292 178.456 97.6458 175.15 104.683C174.308 106.461 173.556 108.18 173.467 108.504C172.936 110.472 173.718 112.059 176.154 113.852C177.659 114.968 180.139 116.555 181.866 117.51C182.546 117.877 183.594 118.7 184.583 119.596C185.513 120.463 186.576 121.286 187.092 121.55C187.934 121.991 188.096 122.021 189.469 122.021C190.783 122.021 191.034 121.976 191.786 121.609C192.879 121.08 194.06 119.787 194.931 118.201C195.315 117.51 195.861 116.628 196.156 116.232C196.835 115.35 200.289 111.721 200.363 111.809C200.393 111.853 200.703 112.691 201.027 113.69L201.633 115.482L200.791 116.011C199.743 116.687 196.983 119.347 196.628 120.037C196.495 120.316 196.171 121.212 195.92 122.021C195.388 123.71 194.857 124.592 193.779 125.561C192.835 126.414 191.565 127.236 191.211 127.236C191.063 127.222 190.62 127.089 190.207 126.928ZM11.4405 122.447C9.90527 122.123 8.96051 121.624 7.86813 120.595C6.7167 119.493 5.5948 118.054 3.98575 115.6C2.79004 113.807 1.32861 111.089 1.32861 110.693C1.32861 110.59 1.84528 110.237 2.48004 109.914C4.0448 109.135 4.65004 108.415 4.90099 107.034C4.96004 106.784 5.04861 106.829 5.58004 107.387C6.53956 108.43 6.86432 109.194 7.30718 111.442C8.10432 115.673 8.84241 118.083 9.49194 118.7C10.6729 119.802 14.1715 119.978 16.6957 119.067C19.6186 118.01 19.9581 117.951 24.5048 117.833C31.3986 117.642 33.9524 117.025 35.1038 115.218C36.7719 112.647 39.7686 104.801 40.4476 101.275C40.8757 98.9975 40.8167 97.014 40.1819 94.1049C39.2371 89.6678 38.1595 81.5723 38.3071 80.0002C38.3957 79.0893 39.3405 74.0645 39.4438 73.9763C39.4733 73.9469 40.049 74.1232 40.7428 74.3583C42.3371 74.8873 43.8871 75.1223 45.2747 75.0489C45.9833 75.0195 46.3524 75.0489 46.3524 75.1664C46.3524 75.2546 46.6476 75.9304 47.0166 76.665C48.8619 80.4704 52.8033 85.0103 56.3019 87.4052C56.8185 87.7578 56.9809 87.9488 56.9071 88.1251C56.7152 88.6247 55.5047 93.4291 55.18 94.9865C54.7223 97.2638 54.7371 99.6146 55.2685 102.245C55.7852 104.919 55.7704 105.403 55.1209 106.711C54.4271 108.092 53.1723 109.958 52.3752 110.781C52.0209 111.148 50.7366 112.309 49.5409 113.352C44.5071 117.73 44.0495 117.98 40.359 118.274C37.8643 118.465 37.2295 118.641 34.9119 119.773L32.9929 120.698L26.4238 120.713L19.8548 120.742L18.0095 121.477C14.9243 122.726 13.6695 122.917 11.4405 122.447ZM203.05 115.453C202.504 113.984 202.4 113.514 202.563 113.411C202.843 113.234 202.946 113.367 203.197 114.278C203.33 114.733 203.463 115.233 203.507 115.38C203.596 115.673 203.153 115.747 203.05 115.453ZM203.817 114.983C203.758 114.836 204.009 114.689 204.644 114.454C206.046 113.954 208.143 112.867 208.851 112.294C209.914 111.427 210.15 110.663 209.619 109.782C208.777 108.401 206.032 108.357 203.168 109.679C201.898 110.267 201.588 110.105 202.71 109.459C204.467 108.459 206.475 107.989 207.774 108.268C209.161 108.577 210.357 109.635 210.357 110.546C210.357 111.809 208.645 113.205 205.441 114.571C204.644 114.909 203.98 115.189 203.95 115.189C203.921 115.189 203.862 115.1 203.817 114.983Z" fill="#FEFEFE"/>
<path d="M203.448 113.763C203.286 113.22 203.316 112.985 203.596 112.985C203.847 112.985 206.268 111.824 206.548 111.56C206.917 111.236 206.888 110.81 206.475 110.707C206.135 110.619 204.998 110.928 203.596 111.501L202.814 111.809L202.548 111.192L202.282 110.56L202.961 110.208C204.039 109.65 205.618 109.165 206.667 109.077C207.464 109.003 207.774 109.032 208.335 109.282C209.087 109.62 209.663 110.369 209.53 110.854C209.383 111.398 208.039 112.485 206.785 113.102C205.5 113.719 204.054 114.307 203.773 114.307C203.685 114.307 203.537 114.072 203.448 113.763Z" fill="#FEFEFE"/>
<path d="M202.179 113.029C201.839 112.691 202.873 112.088 205.028 111.369C206.829 110.766 206.77 111.148 204.939 112C203.33 112.735 202.282 113.132 202.179 113.029ZM201.588 111.148C201.131 109.752 201.352 109.547 201.943 110.84C202.445 111.942 202.459 112.044 202.179 112.147C202.016 112.206 201.869 111.942 201.588 111.148ZM99.2441 103.934C98.5208 103.67 97.4727 102.685 97.3251 102.127C97.2218 101.745 97.517 93.2675 97.6646 92.1802L97.7532 91.5631L98.6094 91.475C99.0965 91.4162 99.8346 91.2693 100.263 91.1518C102.654 90.4906 103.82 90.2261 104.795 90.138L105.872 90.0351L105.828 95.7211L105.769 101.407L104.883 102.23C103.171 103.817 100.853 104.522 99.2441 103.934ZM111.319 103.655C110.124 103.391 108.721 102.729 108.042 102.098L107.496 101.598L107.57 95.8092L107.658 90.0204L108.81 90.1233C110.242 90.2408 115.32 91.0783 115.467 91.2105C115.527 91.2693 115.674 92.4006 115.807 93.7376C116.117 96.7349 116.058 100.349 115.674 101.392C114.995 103.244 113.371 104.096 111.319 103.655ZM66.9894 90.5788C60.568 89.5797 54.0432 85.0985 49.7623 78.766C47.3413 75.1958 46.8099 73.3739 46.6918 68.1581C46.6032 64.4703 46.7509 62.4134 47.3118 59.5778C48.9947 51.159 53.0394 44.7384 59.328 40.5364C66.5613 35.6879 78.917 32.6319 96.0261 31.4418C100.72 31.1185 111.939 30.9569 116.826 31.1332C137.226 31.8679 149.7 35.1002 156.683 41.4473C161.613 45.9432 164.831 52.0552 166.071 59.2692C166.957 64.4409 166.662 70.7881 165.377 73.8147C164.861 75.0636 163.606 77.1499 162.602 78.4575C158.631 83.5705 153.848 86.8469 148.283 88.2574C146.733 88.654 146.497 88.6687 143.264 88.6687C139.042 88.6687 136.695 88.3455 132.872 87.2436C130.082 86.4502 127.07 85.0838 125.107 83.7321C124.162 83.0856 124.044 82.9387 123.778 82.1747C123.011 79.9414 120.56 77.811 117.15 76.4593L115.969 75.9745L115.807 75.2546C115.615 74.4171 115.202 73.8 114.434 73.1976C111.866 71.1701 106.743 70.5383 102.669 71.7284C99.6722 72.5952 97.9156 74.3877 98.3141 76.1655L98.4175 76.6503L97.148 77.2233C94.417 78.4428 91.9813 80.4851 90.9627 82.3951C90.5789 83.115 90.2099 83.5264 89.3389 84.2169C86.4456 86.5236 82.9913 88.2867 79.2418 89.418C75.2118 90.6228 70.2813 91.0783 66.9894 90.5788ZM79.3451 83.1003C83.7294 82.3363 87.9513 80.5732 91.258 78.1343C92.8965 76.9295 95.7308 74.4024 96.7199 73.2711C99.2589 70.3767 100.779 67.4088 101.577 63.7651C102.034 61.7522 102.064 57.9322 101.665 55.934C100.322 49.3371 96.0556 43.9156 89.8851 41.0065C84.0837 38.2591 78.1199 38.0827 71.5951 40.4482C61.8228 43.9891 55.4751 50.1158 53.5118 57.8881C52.9656 60.0626 52.8032 61.4437 52.818 63.912C52.8328 66.395 53.0542 68.0259 53.6594 69.9212C55.6523 76.1949 60.937 80.8524 68.0523 82.6448C69.2775 82.9534 69.8975 83.0562 72.1118 83.3648C73.0123 83.497 78.2085 83.306 79.3451 83.1003ZM140.312 80.3675C145.906 79.8239 150.734 77.7963 154.114 74.5493C156.83 71.9488 158.469 68.7605 159.089 64.8817C159.443 62.6044 159.296 57.6971 158.779 55.2876C156.653 45.2673 149.228 39.1112 136.99 37.2453C134.85 36.922 129.86 36.7898 128.266 37.0102C121.328 38.0093 115.497 41.8587 112.131 47.7063C110.197 51.0562 109.43 54.2591 109.577 58.4464C109.666 61.1351 109.976 62.7513 110.862 65.0139C112.264 68.6136 114.98 72.0663 118.198 74.373C119.734 75.475 123.365 77.4143 125.328 78.193C130.156 80.0737 135.396 80.8377 140.312 80.3675Z" fill="#FEFEFE"/>
<path d="M70.8865 81.8955C67.2699 81.3813 63.727 79.9708 60.9665 77.9727C58.8408 76.43 56.4789 73.4915 55.5046 71.1701C53.7627 67.0121 53.6151 61.7816 55.0913 57.1682C56.1394 53.8624 57.6599 51.4529 60.3613 48.7788C61.9556 47.2067 63.6237 45.811 63.6237 46.0313C63.6237 46.0754 63.3875 46.3987 63.0775 46.7513C61.6604 48.4262 60.2432 50.968 59.5199 53.1425C58.6785 55.6108 58.5308 56.6393 58.5308 59.7981C58.5456 62.2959 58.5899 62.8395 58.8851 64.0589C59.9185 68.2316 61.9261 71.699 64.9818 74.564C68.8937 78.2224 73.7799 80.2353 79.2713 80.4704C81.2051 80.5438 83.6999 80.3822 84.3641 80.1325C84.4822 80.0884 84.5856 80.1178 84.5856 80.1912C84.5856 80.3675 82.4451 81.0875 80.8213 81.4695C77.9427 82.1306 73.7503 82.3216 70.8865 81.8955Z" fill="#FEFEFE"/>
<path d="M77.8689 78.6632C75.3298 78.2959 73.4698 77.7523 71.4622 76.8267C65.587 74.0939 61.4832 68.8193 60.4351 62.6632C60.0808 60.5622 60.2137 57.1829 60.7303 55.2435C61.6899 51.6586 63.2103 49.0286 65.8232 46.4134C70.857 41.4179 78.2822 39.4345 85.3236 41.2122C92.8374 43.1223 98.4765 48.9405 99.9527 56.3454C100.263 57.8734 100.218 61.7522 99.8788 63.2949C99.0817 66.9974 97.3251 70.2004 94.6236 72.8744C91.8484 75.6513 88.3646 77.5025 84.2903 78.3841C83.2127 78.6191 78.8432 78.8101 77.8689 78.6632ZM94.1955 66.5273C95.9817 65.6457 97.3103 64.0443 97.7827 62.2224C98.8012 58.3877 96.2917 54.5823 92.306 53.8918C89.1174 53.3482 85.8994 55.3317 84.8808 58.4611C84.6003 59.3574 84.556 59.7247 84.6151 60.9148C84.6889 62.1489 84.7627 62.4281 85.2351 63.3978C86.106 65.1462 87.4789 66.3216 89.3832 66.9387C89.7522 67.0709 90.5346 67.1297 91.5384 67.1003C92.9998 67.0709 93.1622 67.0415 94.1955 66.5273Z" fill="#FEFEFE"/>
<path d="M92.6753 62.9423C92.2177 62.7072 91.8191 62.0461 91.8191 61.5465C91.8191 61.047 92.38 60.283 92.8672 60.1067C93.7529 59.7981 94.7862 60.3565 94.9929 61.2674C95.1258 61.8551 94.7419 62.6779 94.1958 62.9423C93.6496 63.2362 93.1919 63.2362 92.6753 62.9423ZM134.702 79.104C131.971 78.7954 130.894 78.4575 132.68 78.4575C134.289 78.4575 136.784 77.958 138.909 77.2087C145.213 74.9901 150.276 69.7743 152.166 63.5447C152.845 61.3408 153.007 60.1214 152.992 57.5208C152.978 55.6843 152.904 54.8321 152.653 53.6273C152.062 50.8505 150.911 48.2205 149.228 45.8404C148.224 44.4152 145.626 41.844 144.253 40.9184C143.663 40.5217 143.235 40.1691 143.309 40.1397C143.545 40.0662 146.217 41.2269 147.545 41.9763C152.003 44.5033 155.236 48.3087 156.771 52.8633C158.085 56.7862 158.395 62.4428 157.509 66.1012C155.753 73.2858 149.641 77.9433 140.533 79.0452C139.382 79.1774 135.75 79.2215 134.702 79.104Z" fill="#FEFEFE"/>
<path d="M129.905 76.7385C122.287 76.1949 115.659 71.6255 112.766 64.9405C111.762 62.6338 111.437 61.1058 111.349 58.3289C111.29 56.5071 111.334 55.5814 111.511 54.5823C112.751 47.4565 118.39 41.3445 125.55 39.361C128.34 38.597 131.942 38.3913 134.732 38.8762C142.186 40.125 148.372 45.4143 150.483 52.305C151.59 55.934 151.546 59.8569 150.35 63.4272C149.449 66.1012 148.121 68.3344 146.187 70.3767C142.733 74.0351 138.171 76.2243 133.078 76.6944C131.499 76.8414 131.277 76.8414 129.905 76.7385ZM144.696 64.7936C146.512 64.1177 148.121 62.4575 148.741 60.6503C149.154 59.4455 149.11 57.4914 148.652 56.2279C147.973 54.3326 146.349 52.7899 144.371 52.1581C143.515 51.8789 143.102 51.8349 141.95 51.8936C140.725 51.9377 140.445 52.0112 139.47 52.496C138.038 53.1866 136.99 54.2297 136.296 55.6549C135.824 56.5952 135.75 56.9037 135.691 58.0644C135.603 59.6953 135.913 60.9295 136.68 62.1196C137.64 63.5741 139.293 64.7495 140.873 65.0874C141.862 65.2931 143.751 65.1609 144.696 64.7936Z" fill="#FEFEFE"/>
<path d="M143.382 60.6062C142.91 60.1361 142.865 60.0332 142.939 59.4602C143.161 57.8 145.301 57.4914 145.951 59.0194C146.364 60.0332 145.611 61.1205 144.489 61.1205C144.017 61.1205 143.795 61.0176 143.382 60.6062ZM95.4355 89.756C94.2989 89.5797 93.1327 89.0067 92.6455 88.3749C92.1141 87.6844 91.7598 86.2445 91.8779 85.216C92.0846 83.4823 93.3393 81.6752 95.3027 80.2794C96.1736 79.6623 99.0965 78.1637 99.436 78.1637C99.5246 78.1637 99.9969 78.3987 100.469 78.6779C103.658 80.5879 109.577 80.7201 113.105 78.9571C113.652 78.6779 114.331 78.2665 114.611 78.0167L115.113 77.5613L116.102 77.9286C118.021 78.6632 119.453 79.5007 120.545 80.5879C122.007 82.0278 122.302 82.6889 122.302 84.5549C122.302 85.8625 122.243 86.127 121.874 86.9497C120.723 89.4474 118.464 89.9323 112.707 88.9038C108.16 88.0957 104.042 88.1398 101.296 89.0361C99.185 89.7266 97.015 89.9911 95.4355 89.756ZM42.8242 73.5943C39.5175 72.9479 37.5837 71.3611 36.6389 68.4961C36.3289 67.541 36.2699 67.0856 36.2551 65.5282C36.2551 64.5144 36.2846 63.6182 36.3437 63.5447C36.4027 63.4419 37.0966 63.4566 38.4842 63.5888C40.2556 63.7504 44.5808 63.7651 45.127 63.6035C45.2746 63.5594 45.3337 64.4116 45.378 67.3647C45.4223 70.6852 45.5256 72.0369 45.8356 73.4327C45.9094 73.7412 45.8946 73.7559 44.6989 73.7412C44.0199 73.7266 43.1785 73.6678 42.8242 73.5943ZM168.138 72.3014C167.695 72.2573 167.341 72.1545 167.355 72.0663C167.71 69.8624 167.857 67.7174 167.813 65.058L167.769 62.002L168.285 62.1195C169.393 62.3546 172.596 62.193 174.987 61.7963C176.272 61.5759 177.364 61.4437 177.423 61.4878C177.615 61.6935 177.512 67.6292 177.305 68.4667C176.995 69.7155 176.493 70.7146 175.991 71.1407C174.736 72.1985 171.548 72.6687 168.138 72.3014ZM41.2299 62.2077C41.2742 62.0461 41.4956 61.1352 41.7023 60.1655C42.2337 57.7706 43.1932 53.9506 43.6213 52.5107C44.4184 49.8955 46.6918 45.811 50.6922 39.7871L50.958 39.3757L50.5446 39.2141C49.9246 38.979 47.9761 38.4941 47.6513 38.4941C47.2084 38.4941 47.2084 38.2003 47.607 36.4225C48.1384 34.0423 48.788 32.0001 49.4522 30.619C50.3527 28.7384 52.1537 27.1663 55.2241 25.506L56.4937 24.8302L56.597 25.2857C56.6413 25.5354 56.6856 26.1231 56.6856 26.5786C56.6856 27.7393 57.0694 31.2067 57.4237 33.2196C57.7632 35.2324 58.3241 37.2159 58.826 38.2591L59.1951 39.0084L58.8703 39.2288C56.4199 40.8596 53.4084 43.6659 51.7994 45.8403C48.7437 49.9689 46.6623 55.0672 45.8208 60.5622C45.6142 61.8698 45.4961 62.2812 45.3189 62.2812C45.2008 62.2812 44.2118 62.3399 43.1194 62.384C41.2446 62.4722 41.1561 62.4722 41.2299 62.2077Z" fill="#FEFEFE"/>
<path d="M37.8644 61.2233C34.2625 59.7688 32.0482 57.3445 31.3544 54.0534C30.6901 50.968 31.7677 46.4133 33.7605 43.7834C35.3401 41.7118 37.9086 40.3748 41.112 39.9487C43.2524 39.6695 48.1091 40.0515 48.0205 40.4923C48.0058 40.5805 47.4005 41.5795 46.6772 42.7402C45.9391 43.8862 45.0239 45.429 44.6401 46.1489L43.9167 47.4565L43.2524 47.3537C40.5658 46.9717 38.7501 47.6916 38.2629 49.3078C37.9529 50.3509 38.0415 51.7026 38.4548 52.5548C38.7944 53.2159 39.7391 54.2738 40.6986 55.0525L41.0234 55.317L40.6101 57.08C40.3739 58.0497 40.0343 59.4896 39.8572 60.283C39.6063 61.3849 39.4882 61.7082 39.2963 61.7082C39.1634 61.7082 38.5139 61.4878 37.8644 61.2233ZM168.433 60.7825C167.739 60.6356 167.621 60.5621 167.577 60.2389C167.444 59.1811 166.75 56.0222 166.367 54.7586C163.901 46.5162 158.484 39.8018 151.531 36.3343C150.808 35.967 150.188 35.6585 150.173 35.6438C150.143 35.6144 150.527 34.6888 151.029 33.5575C151.516 32.4409 152.18 30.8541 152.52 30.046C152.978 28.9 156.402 21.5244 156.55 21.3334C156.565 21.304 157.244 21.7448 158.041 22.3031C158.853 22.8614 160.255 23.8311 161.17 24.4629C162.868 25.6383 164.226 27.0487 164.876 28.327C165.023 28.6355 165.747 30.7218 166.485 32.9845C167.223 35.2471 167.872 37.2159 167.917 37.3481C167.99 37.5391 167.917 37.6273 167.592 37.7007C166.485 37.9358 164.935 38.3766 164.758 38.4941C164.595 38.5823 164.89 39.3316 166.204 42.1672C169.526 49.3078 170.618 52.0699 171.031 54.3619C171.297 55.8459 171.622 60.3858 171.489 60.7385C171.415 60.9295 171.194 60.9735 170.323 60.9588C169.732 60.9588 168.876 60.8707 168.433 60.7825Z" fill="#FEFEFE"/>
<path d="M173.246 58.6668C173.201 58.0351 173.083 56.7715 172.995 55.8606C172.906 54.935 172.862 54.1709 172.891 54.1563C172.921 54.1269 173.305 53.9065 173.747 53.6567C174.737 53.1131 175.74 52.1434 176.154 51.35C176.862 50.0277 176.39 47.9854 175.12 46.8688C174.161 46.0313 173.305 45.7963 171.445 45.855L169.895 45.9138L168.448 42.7843C167.651 41.0653 167.031 39.6401 167.09 39.6108C167.297 39.4785 169.54 39.2288 170.5 39.2288C176.109 39.2288 179.77 41.9322 181.365 47.2361C181.675 48.2499 181.778 48.9845 181.822 50.395C181.911 52.4666 181.734 53.4657 181.025 54.9203C180.449 56.0957 178.678 57.8294 177.364 58.5052C176.434 58.9901 174.013 59.7981 173.526 59.7981C173.393 59.7981 173.305 59.4602 173.246 58.6668ZM59.3724 37.3628C58.4867 35.0708 57.8666 31.5152 57.5566 26.9753L57.3647 24.3453L58.5457 23.2287C59.2395 22.5529 60.6566 21.4803 62.0738 20.54C64.8785 18.7034 66.9747 16.9404 69.6762 14.1488C72.2743 11.4748 74.0162 10.3288 80.3785 7.12582C85.7961 4.39303 86.4752 4.18734 94.4023 2.87971C96.6018 2.5124 99.2442 2.04225 100.292 1.83655C101.326 1.63086 102.197 1.46924 102.226 1.46924C102.329 1.46924 102.448 2.27733 102.802 5.28927C103.628 12.3122 103.673 13.0469 103.702 20.7898C103.717 24.8302 103.776 28.5033 103.835 28.9588L103.953 29.7962L101.621 29.8844C83.508 30.619 70.5619 33.1167 61.7047 37.6273C60.76 38.0974 59.9333 38.4941 59.889 38.4941C59.8447 38.4941 59.6086 37.9799 59.3724 37.3628ZM147.678 34.6741C142.438 32.6612 134.407 31.0745 125.845 30.3545C120.413 29.8844 117.859 29.7815 111.378 29.7668L104.736 29.7521L104.632 27.7687C104.573 26.6814 104.544 23.1112 104.544 19.8348C104.573 13.4876 104.455 11.7099 103.555 4.42242C103.348 2.85033 103.23 1.52801 103.274 1.48393C103.422 1.32232 110.906 1.42516 113.076 1.60147C118.007 1.99817 121.756 2.54179 123.483 3.08541C123.97 3.23233 125.166 3.6878 126.14 4.08449C127.72 4.73096 132.621 6.47936 136.548 7.80167C139.544 8.80076 142.703 9.96146 143.427 10.3288C145.095 11.1662 149.007 14.3545 153.553 18.5712L155.871 20.7163L155.457 21.6419C155.221 22.1415 154.527 23.6107 153.893 24.9036C153.273 26.1966 152.446 28.0184 152.062 28.9441C150.586 32.4702 149.346 35.2618 149.257 35.2471C149.213 35.2471 148.49 34.9826 147.678 34.6741Z" fill="#FEFEFE"/>
</g>
<g clip-path="url(#clip1_141_3039)">
<path d="M338.017 73.2308C338.017 90.3239 344.807 106.717 356.894 118.804C368.98 130.89 385.373 137.68 402.466 137.68C419.56 137.68 435.953 130.89 448.039 118.804C460.126 106.717 466.916 90.3239 466.916 73.2308C466.916 56.1377 460.126 39.7446 448.039 27.658C435.953 15.5713 419.56 8.78112 402.466 8.78112C385.373 8.78112 368.98 15.5713 356.894 27.658C344.807 39.7446 338.017 56.1377 338.017 73.2308Z" fill="#70C4FF"/>
<path opacity="0.26" d="M401.613 10.9191C401.613 10.9191 395.164 47.3387 409.201 49.9945C423.237 52.6503 429.308 48.8564 436.516 56.0646C443.723 63.2728 459.92 60.7764 460.416 53.4088C460.416 53.4088 450.552 16.6096 401.613 10.9191ZM361.72 121.561C361.72 121.561 376.606 123.826 390.28 118.122C404.76 112.081 417.879 97.5995 410.505 80.3724C398.906 53.2831 387.691 67.6165 391.627 46.3508C395.562 25.0852 383.198 16.6096 374.574 16.6096C365.95 16.6096 328.315 72.8404 361.72 121.561Z" fill="#A3D9FF"/>
<path opacity="0.26" d="M358.593 120.395C358.593 120.395 371.509 122.537 383.372 117.143C395.937 111.432 407.318 97.7361 400.92 81.4502C390.857 55.8364 381.126 69.3896 384.541 49.2826C387.955 29.1755 377.227 21.1615 369.745 21.1615C362.263 21.1615 329.61 74.3291 358.593 120.395Z" fill="#A3D9FF"/>
<path d="M360.489 23.2784C380.958 26.4196 373.584 43.9039 379.355 64.3478C383.1 77.6108 388.754 75.6726 393.819 85.5093C401.554 95.7375 364.228 129.896 344.214 101.36C324.378 52.3794 360.489 23.2784 360.489 23.2784Z" fill="#9EE3C3"/>
<path d="M363.941 114.762C355.367 114.762 347.901 110.579 342.351 102.666L342.202 102.454L342.105 102.213C331.543 76.1347 336.69 55.5923 342.869 42.9518C349.562 29.2563 358.677 21.8159 359.062 21.5058L359.843 20.8764L360.835 21.0289C376.79 23.477 377.74 34.1457 378.84 46.4993C379.306 51.7324 379.834 57.6642 381.546 63.7292C383.54 70.7907 385.996 73.0475 388.84 75.6612C391.01 77.6558 393.467 79.9138 395.76 84.3063C397.686 87.0145 397.58 90.8425 395.453 95.1167C390.753 104.565 377.368 114.762 363.941 114.762ZM346.227 100.262C350.931 106.863 356.89 110.21 363.941 110.21C376.285 110.21 387.806 100.266 391.377 93.0886C392.719 90.3918 392.947 88.1292 392.003 86.8819L391.885 86.7254L391.795 86.5507C389.849 82.7716 387.862 80.9455 385.759 79.013C382.687 76.1887 379.509 73.2695 377.165 64.9658C375.337 58.4911 374.789 52.3344 374.305 46.9022C373.255 35.1057 372.609 27.8525 361.169 25.7026C358.917 27.7381 352.037 34.4792 346.872 45.1262C338.598 62.1842 338.382 80.7343 346.227 100.262Z" fill="#6E6E96"/>
<path d="M407.948 9.01557C407.948 9.01557 397.851 43.4316 420.039 43.4316C442.585 43.4316 446.812 63.8413 460.912 46.0412C445.876 9.81965 407.948 9.01557 407.948 9.01557Z" fill="#9EE3C3"/>
<path d="M450.011 55.6042H450.008C446.374 55.6037 443.164 53.802 439.446 51.7159C434.428 48.8996 428.739 45.7072 420.039 45.7072C414.477 45.7072 410.204 43.7667 407.339 39.9404C399.642 29.6615 405.511 9.23864 405.764 8.37425L406.255 6.70236L407.997 6.73935C408.402 6.74788 418.042 7.0051 429.667 11.8432C440.429 16.3223 454.95 25.7396 463.015 45.1677L463.529 46.4043L462.697 47.4536C458.232 53.0907 454.319 55.6042 450.011 55.6042ZM409.677 11.4164C409.21 13.3654 408.502 16.7365 408.15 20.5304C407.453 28.0414 408.433 33.8111 410.985 37.2163C412.972 39.867 415.933 41.1553 420.038 41.1553C429.929 41.1553 436.441 44.8098 441.674 47.7461C444.965 49.5927 447.564 51.0518 450.009 51.0524H450.011C451.63 51.0524 454.211 50.4674 458.276 45.6679C452.23 31.9247 442.075 21.9849 428.074 16.1134C420.03 12.7395 412.88 11.7192 409.677 11.4164Z" fill="#6E6E96"/>
<path opacity="0.2" d="M401.897 8.21206C366.303 8.21206 338.017 37.0672 338.017 72.6617C338.017 108.256 366.303 137.111 401.897 137.111C437.492 137.111 466.347 108.256 466.347 72.6617C466.347 37.0672 437.492 8.21206 401.897 8.21206ZM448.453 79.9855C446.178 87.9289 432.448 85.4746 426.994 91.3814C422.556 96.1876 426.85 109.78 420.893 112.655C414.036 115.962 406.347 117.814 398.225 117.814C389.229 117.814 409.193 101.405 401.803 97.402C399.174 95.9771 397.825 103.826 396.586 86.3936C396.132 79.9923 386.922 77.0241 380.891 62.3686C379.376 58.6874 376.546 32.768 375.436 34.2487C368.608 43.3536 374.298 71.8889 380.747 86.7914C384.823 96.2104 357.221 112.582 357.221 97.9466C357.221 68.9611 344.138 86.0328 345.984 65.573C348.576 36.8396 369.373 13.3336 398.225 13.3336C410.396 13.3336 422.773 16.8338 431.61 23.8384C435.789 27.1486 439.177 31.2446 441.378 36.122C445.241 44.6823 414.36 39.1807 417.167 40.5857C422.893 43.4515 452.095 54.1019 449.006 53.2626C408.71 42.3122 447.467 62.5746 450.464 65.5741C455.464 70.5733 449.764 75.408 448.453 79.9855Z" fill="#6E6E96"/>
<path d="M401.898 139.388C365.105 139.388 335.172 109.454 335.172 72.6617C335.172 35.8688 365.105 5.93584 401.898 5.93584C438.69 5.93584 468.623 35.8688 468.623 72.6617C468.623 73.2654 468.384 73.8444 467.957 74.2712C467.53 74.6981 466.951 74.9379 466.347 74.9379C465.743 74.9379 465.164 74.6981 464.738 74.2712C464.311 73.8444 464.071 73.2654 464.071 72.6617C464.071 38.3789 436.18 10.4883 401.898 10.4883C367.615 10.4883 339.724 38.3789 339.724 72.6617C339.724 106.944 367.615 134.835 401.898 134.835C402.501 134.835 403.08 135.075 403.507 135.502C403.934 135.929 404.174 136.508 404.174 137.111C404.174 137.715 403.934 138.294 403.507 138.721C403.08 139.148 402.501 139.388 401.898 139.388Z" fill="#6E6E96"/>
<path d="M447.736 104.862H434.348C434.236 104.862 434.125 104.84 434.021 104.797C433.918 104.754 433.824 104.691 433.744 104.612C433.665 104.533 433.602 104.438 433.559 104.335C433.516 104.231 433.494 104.12 433.494 104.008V101.247C433.494 101.021 433.584 100.804 433.744 100.644C433.904 100.483 434.122 100.394 434.348 100.394H447.736C447.962 100.394 448.179 100.483 448.339 100.644C448.499 100.804 448.589 101.021 448.589 101.247V104.008C448.589 104.12 448.567 104.231 448.524 104.335C448.481 104.438 448.418 104.533 448.339 104.612C448.26 104.691 448.166 104.754 448.062 104.797C447.959 104.84 447.848 104.862 447.736 104.862ZM435.201 103.155H446.881V102.101H435.201V103.155Z" fill="#6E6E96"/>
<path d="M417.894 99.8626H464.433V108.045H417.894V99.8626Z" fill="#D4E8FF"/>
<path d="M428.064 95.6522V86.8164C428.064 79.0778 433.904 73.3474 441.041 73.3474C448.179 73.3474 454.016 79.0778 454.016 86.8164V95.6522H460.497V86.306C460.497 74.6995 451.742 66.4106 441.042 66.4106C430.341 66.4106 421.586 74.6989 421.586 86.306V95.6522H428.064Z" fill="#F0F0FF"/>
<path d="M441.039 66.4112C430.338 66.4112 421.584 74.6995 421.584 86.3066V95.6527H423.993V88.3142C423.993 76.7094 432.12 68.42 442.052 68.42C451.986 68.42 460.114 76.71 460.114 88.3142V95.6505H460.494V86.3054C460.496 74.6995 451.741 66.4112 441.039 66.4112ZM454.014 95.6522H454.102V88.8275C454.102 88.2829 454.066 87.7508 454.014 87.2267V95.6522Z" fill="white"/>
<path d="M462.774 97.9284H450.271V86.8164C450.271 80.2672 446.821 76.3572 441.041 76.3572C435.26 76.3572 431.809 80.2672 431.809 86.8164V97.9284H419.31V86.306C419.31 73.8732 428.855 64.1344 441.041 64.1344C453.227 64.1344 462.772 73.8732 462.772 86.306V97.9284H462.774ZM454.824 93.3759H458.221V86.306C458.221 76.2616 450.835 68.6869 441.042 68.6869C431.248 68.6869 423.863 76.2616 423.863 86.306V93.3759H427.258V86.8164C427.258 77.6973 432.669 71.8047 441.042 71.8047C449.415 71.8047 454.825 77.6967 454.825 86.8164V93.3759H454.824Z" fill="#6E6E96"/>
<path d="M468.919 129.037C468.919 133.298 465.434 136.786 461.176 136.786H420.123C415.865 136.786 412.377 133.298 412.377 129.037V102.852C412.377 98.5953 415.863 95.107 420.123 95.107H461.176C465.433 95.107 468.919 98.593 468.919 102.852V129.037Z" fill="#FFF6A3"/>
<path d="M416.453 132.97V106.783C416.453 101.178 418.592 99.0375 424.197 99.0375H465.25C466.538 99.0375 467.751 99.3601 468.82 99.9229C467.523 97.4504 464.931 95.7535 461.963 95.7535H420.911C416.654 95.7535 413.169 99.2406 413.169 103.498V129.686C413.169 132.658 414.868 135.249 417.339 136.547C416.758 135.444 416.454 134.217 416.453 132.97Z" fill="#FFFCE0"/>
<path opacity="0.36" d="M461.707 93.4454C463.451 94.8117 464.583 96.9303 464.583 99.3066V123.733C464.583 127.83 461.232 131.181 457.135 131.181H417.665C415.416 131.181 413.396 130.168 412.027 128.578C412.639 132.238 415.833 135.054 419.657 135.054H460.711C464.97 135.054 468.452 131.567 468.452 127.306V101.122C468.449 97.1972 465.495 93.9399 461.707 93.4454Z" fill="#D99B00"/>
<path d="M461.176 139.063H420.123C414.597 139.063 410.101 134.565 410.101 129.038V102.852C410.101 97.3263 414.597 92.8308 420.123 92.8308H461.176C466.701 92.8308 471.195 97.3263 471.195 102.852V129.038C471.195 134.565 466.701 139.063 461.176 139.063ZM420.123 97.3827C417.107 97.3827 414.654 99.8364 414.654 102.851V129.037C414.654 132.055 417.107 134.51 420.123 134.51H461.176C464.19 134.51 466.643 132.055 466.643 129.037V102.852C466.643 99.8364 464.19 97.3832 461.176 97.3832H420.123V97.3827Z" fill="#6E6E96"/>
<path opacity="0.15" d="M442.055 68.4194C442.055 68.4194 456.323 70.1032 456.323 83.6912V95.1064H460.119C460.116 95.1059 465.167 71.4337 442.055 68.4194Z" fill="#6E6E96"/>
<path d="M445.154 118.216C445.154 120.045 443.657 121.54 441.828 121.54H441.165C439.336 121.54 437.84 120.045 437.84 118.216V112.852C437.84 111.025 439.336 109.529 441.165 109.529H441.828C443.657 109.529 445.154 111.025 445.154 112.852V118.216Z" fill="#E0CD79"/>
<path d="M424.198 99.0375H433.528V131.18H424.198V99.0375Z" fill="#FFFCE0"/>
<path opacity="0.25" d="M458.107 99.0375H467.124V133.983H458.107V99.0375Z" fill="#D99B00"/>
<path d="M430.517 99.0375H433.527V131.18H430.517V99.0375Z" fill="white"/>
</g>
<path d="M303.842 72.179C304.428 71.5932 304.428 70.6435 303.842 70.0577L294.296 60.5117C293.71 59.926 292.76 59.926 292.175 60.5117C291.589 61.0975 291.589 62.0473 292.175 62.6331L300.66 71.1183L292.175 79.6036C291.589 80.1894 291.589 81.1392 292.175 81.7249C292.76 82.3107 293.71 82.3107 294.296 81.7249L303.842 72.179ZM219.833 72.6183C220.662 72.6183 221.333 71.9468 221.333 71.1183C221.333 70.2899 220.662 69.6183 219.833 69.6183V72.6183ZM228.565 69.6183C227.736 69.6183 227.065 70.2899 227.065 71.1183C227.065 71.9468 227.736 72.6183 228.565 72.6183V69.6183ZM237.296 72.6183C238.124 72.6183 238.796 71.9468 238.796 71.1183C238.796 70.2899 238.124 69.6183 237.296 69.6183V72.6183ZM246.027 69.6183C245.199 69.6183 244.527 70.2899 244.527 71.1183C244.527 71.9468 245.199 72.6183 246.027 72.6183V69.6183ZM254.759 72.6183C255.587 72.6183 256.259 71.9468 256.259 71.1183C256.259 70.2899 255.587 69.6183 254.759 69.6183V72.6183ZM263.49 69.6183C262.662 69.6183 261.99 70.2899 261.99 71.1183C261.99 71.9468 262.662 72.6183 263.49 72.6183V69.6183ZM272.221 72.6183C273.05 72.6183 273.721 71.9468 273.721 71.1183C273.721 70.2899 273.05 69.6183 272.221 69.6183V72.6183ZM280.953 69.6183C280.124 69.6183 279.453 70.2899 279.453 71.1183C279.453 71.9468 280.124 72.6183 280.953 72.6183V69.6183ZM289.684 72.6183C290.513 72.6183 291.184 71.9468 291.184 71.1183C291.184 70.2899 290.513 69.6183 289.684 69.6183V72.6183ZM298.415 69.6183C297.587 69.6183 296.915 70.2899 296.915 71.1183C296.915 71.9468 297.587 72.6183 298.415 72.6183V69.6183ZM215.468 72.6183H219.833V69.6183H215.468V72.6183ZM228.565 72.6183H237.296V69.6183H228.565V72.6183ZM246.027 72.6183H254.759V69.6183H246.027V72.6183ZM263.49 72.6183H272.221V69.6183H263.49V72.6183ZM280.953 72.6183H289.684V69.6183H280.953V72.6183ZM298.415 72.6183H302.781V69.6183H298.415V72.6183ZM304.902 73.2397C306.074 72.0681 306.074 70.1686 304.902 68.997L285.811 49.9051C284.639 48.7336 282.74 48.7336 281.568 49.9051C280.396 51.0767 280.396 52.9762 281.568 54.1478L298.538 71.1183L281.568 88.0889C280.396 89.2605 280.396 91.16 281.568 92.3315C282.74 93.5031 284.639 93.5031 285.811 92.3315L304.902 73.2397ZM219.833 74.1183C221.49 74.1183 222.833 72.7752 222.833 71.1183C222.833 69.4615 221.49 68.1183 219.833 68.1183V74.1183ZM228.565 68.1183C226.908 68.1183 225.565 69.4615 225.565 71.1183C225.565 72.7752 226.908 74.1183 228.565 74.1183V68.1183ZM237.296 74.1183C238.953 74.1183 240.296 72.7752 240.296 71.1183C240.296 69.4615 238.953 68.1183 237.296 68.1183V74.1183ZM246.027 68.1183C244.37 68.1183 243.027 69.4615 243.027 71.1183C243.027 72.7752 244.37 74.1183 246.027 74.1183V68.1183ZM254.759 74.1183C256.416 74.1183 257.759 72.7752 257.759 71.1183C257.759 69.4615 256.416 68.1183 254.759 68.1183V74.1183ZM263.49 68.1183C261.833 68.1183 260.49 69.4615 260.49 71.1183C260.49 72.7752 261.833 74.1183 263.49 74.1183V68.1183ZM272.221 74.1183C273.878 74.1183 275.221 72.7752 275.221 71.1183C275.221 69.4615 273.878 68.1183 272.221 68.1183V74.1183ZM280.953 68.1183C279.296 68.1183 277.953 69.4615 277.953 71.1183C277.953 72.7752 279.296 74.1183 280.953 74.1183V68.1183ZM289.684 74.1183C291.341 74.1183 292.684 72.7752 292.684 71.1183C292.684 69.4615 291.341 68.1183 289.684 68.1183V74.1183ZM298.415 68.1183C296.759 68.1183 295.415 69.4615 295.415 71.1183C295.415 72.7752 296.759 74.1183 298.415 74.1183V68.1183ZM215.468 74.1183H219.833V68.1183H215.468V74.1183ZM228.565 74.1183H237.296V68.1183H228.565V74.1183ZM246.027 74.1183H254.759V68.1183H246.027V74.1183ZM263.49 74.1183H272.221V68.1183H263.49V74.1183ZM280.953 74.1183H289.684V68.1183H280.953V74.1183ZM298.415 74.1183H302.781V68.1183H298.415V74.1183Z" fill="#A3D9FF"/>
<defs>
<clipPath id="clip0_141_3039">
<rect width="211.243" height="132.379" fill="white"/>
</clipPath>
<clipPath id="clip1_141_3039">
<rect width="140.828" height="140.828" fill="white" transform="translate(335.172 2.81657)"/>
</clipPath>
</defs>
</svg>
